{"title":"Comics without borders S01E06 720p WEBRip x264-TheRival","uid":14723272,"size":431839719,"categoryP":"video","categoryS":"hd___tv_shows","magnet":"?xt=urn:btih:dd54573f350c799159193cf6467900c30a1580d7&amp;dn=Comics+without+borders+S01E06+720p+WEBRip+x264-TheRival&amp;tr=udp%3A%2F%2Ftracker.leechers-paradise.org%3A6969&amp;tr=udp%3A%2F%2Fzer0day.ch%3A1337&amp;tr=udp%3A%2F%2Fopen.demonii.com%3A1337&amp;tr=udp%3A%2F%2Ftracker.coppersurfer.tk%3A6969&amp;tr=udp%3A%2F%2Fexodus.desync.com%3A6969","seeders":0,"leechers":0,"uploader":"TheRival","files":1,"time":1464531700,"description":"Screens: \nhttp://extraimago.com/image/aJ9a\r\n\r\nVideo\r\nID                                       : 1\r\nFormat                                   : AVC\r\nFormat/Info                              : Advanced Video Codec\r\nFormat profile                           :   \r\nFormat settings, CABAC                   : Yes\r\nFormat settings, ReFrames                : 1 frame\r\nFormat settings, GOP                     : M=3, N=24\r\nMuxing mode                              : Container   \r\nCodec ID                                 : avc1\r\nCodec ID/Info                            : Advanced Video Coding\r\nDuration                                 : 27mn 15s\r\nBit rate mode                            : Variable\r\nBit rate                                 : 1 979 Kbps\r\nMaximum bit rate                         : 3 000 Kbps\r\nWidth                                    : 1 280 pixels\r\nHeight                                   : 720 pixels\r\nDisplay aspect ratio                     : 16:9\r\nFrame rate mode                          : Constant\r\nFrame rate                               : 23.976 (24000/1001) fps\r\nColor space                              : YUV\r\nChroma subsampling                       : 4:2:0\r\nBit depth                                : 8 bits\r\nScan type                                : Progressive\r\nBits/(Pixel*Frame)                       : 0.090\r\nStream size                              : 386 MiB (94%)\r\nLanguage                                 : English\r\n\r\nAudio\r\nID                                       : 2\r\nFormat                                   : AAC\r\nFormat/Info                              : Advanced Audio Codec\r\nFormat profile                           : LC\r\nCodec ID                                 : 40\r\nDuration                                 : 27mn 15s\r\nBit rate mode                            : Constant\r\nBit rate                                 : 128 Kbps\r\nChannel(s)                               : 2 channels\r\nChannel positions                        : Front: L R\r\nSampling rate                            : 48.0 KHz\r\nFrame rate                               : 46.875 fps (1024 spf)\r\nCompression mode                         : Lossy\r\nStream size                              : 25.0 MiB (6%)\r\nTitle                                    : Stereo\r\nLanguage                                 : English\r\nDefault                                  : Yes\r\nAlternate group                          : 1","torrent":{"xt":"urn:btih:dd54573f350c799159193cf6467900c30a1580d7","amp;dn":"Comics+without+borders+S01E06+720p+WEBRip+x264-TheRival","amp;tr":["udp%3A%2F%2Ftracker.leechers-paradise.org%3A6969","udp%3A%2F%2Fzer0day.ch%3A1337","udp%3A%2F%2Fopen.demonii.com%3A1337","udp%3A%2F%2Ftracker.coppersurfer.tk%3A6969","udp%3A%2F%2Fexodus.desync.com%3A6969"],"infoHash":"dd54573f350c799159193cf6467900c30a1580d7","infoHashBuffer":{"type":"Buffer","data":[221,84,87,63,53,12,121,145,89,25,60,246,70,121,0,195,10,21,128,215]},"announce":[],"urlList":[]}}